# xmcd
#
# Track frame offsets: 
#        150
#        17357
#        34659
#        47294
#        64690
#        79336
#        95618
#        116277
#
# Disc length: 1799 seconds
#
# Revision: 0
# Processed by: cddbd v1.5.2PL0 Copyright (c) Steve Scherf et al.
# Submitted via: ExactAudioCopyFreeDBPlugin 1.0
#
DISCID=53070508
DTITLE=Tony Houdek - The Other Side
DYEAR=2001
DGENRE=Country
TTITLE0=Love The Nights
TTITLE1=Fall In Love
TTITLE2=Broken Down Pickup
TTITLE3=Here To Stay
TTITLE4=One In A Million
TTITLE5=Another Snowy Morning
TTITLE6=Darlene
TTITLE7=You Inspire Me
EXTD=
EXTT0=
EXTT1=
EXTT2=
EXTT3=
EXTT4=
EXTT5=
EXTT6=
EXTT7=
PLAYORDER=
